HIERARCHY
ROOT Hips
{
 OFFSET 0.000000 0.000000 0.000000
 CHANNELS 6 Xposition Yposition Zposition Yrotation Xrotation Zrotation
 JOINT Chest
 {
  OFFSET 0.000000 11.395451 -0.039534
  CHANNELS 3 Yrotation Xrotation Zrotation
  JOINT Chest2
  {
   OFFSET 0.000000 9.398669 0.071813
   CHANNELS 3 Yrotation Xrotation Zrotation
   JOINT Chest3
   {
    OFFSET 0.000000 8.489801 0.000000
    CHANNELS 3 Yrotation Xrotation Zrotation
    JOINT Chest4
    {
     OFFSET 0.000000 8.489801 0.000000
     CHANNELS 3 Yrotation Xrotation Zrotation
     JOINT Neck
     {
      OFFSET 0.000000 12.404889 0.000000
      CHANNELS 3 Yrotation Xrotation Zrotation
      JOINT Head
      {
       OFFSET 0.000000 8.903270 0.092239
       CHANNELS 3 Yrotation Xrotation Zrotation
       End Site
       {
        OFFSET 0.000000 17.592497 0.007158
       }
      }
     }
     JOINT RightCollar
     {
      OFFSET -3.196775 6.966722 0.000000
      CHANNELS 3 Yrotation Xrotation Zrotation
      JOINT RightShoulder
      {
       OFFSET -15.955896 0.000000 0.000000
       CHANNELS 3 Yrotation Xrotation Zrotation
       JOINT RightElbow
       {
        OFFSET -24.792472 0.000000 0.000000
        CHANNELS 3 Yrotation Xrotation Zrotation
        JOINT RightWrist
        {
         OFFSET -20.900115 0.000000 0.025002
         CHANNELS 3 Yrotation Xrotation Zrotation
         End Site
         {
          OFFSET -16.056692 0.000000 0.000000
         }
        }
       }
      }
     }
     JOINT LeftCollar
     {
      OFFSET 3.196775 6.966722 0.000000
      CHANNELS 3 Yrotation Xrotation Zrotation
      JOINT LeftShoulder
      {
       OFFSET 15.955896 0.000000 0.000000
       CHANNELS 3 Yrotation Xrotation Zrotation
       JOINT LeftElbow
       {
        OFFSET 24.792472 0.000000 0.000000
        CHANNELS 3 Yrotation Xrotation Zrotation
        JOINT LeftWrist
        {
         OFFSET 20.900115 0.000000 0.025002
         CHANNELS 3 Yrotation Xrotation Zrotation
         End Site
         {
          OFFSET 16.056692 0.000000 0.000000
         }
        }
       }
      }
     }
    }
   }
  }
 }
 JOINT RightHip
 {
  OFFSET -9.568995 0.193718 0.019767
  CHANNELS 3 Yrotation Xrotation Zrotation
  JOINT RightKnee
  {
   OFFSET 0.000000 -56.649296 0.015402
   CHANNELS 3 Yrotation Xrotation Zrotation
   JOINT RightAnkle
   {
    OFFSET 0.000000 -41.365147 0.021264
    CHANNELS 3 Yrotation Xrotation Zrotation
    JOINT RightToe
    {
     OFFSET 0.000000 -7.465940 17.672538
     CHANNELS 3 Yrotation Xrotation Zrotation
     End Site
     {
      OFFSET 0.000000 -1.736315 7.837145
     }
    }
   }
  }
 }
 JOINT LeftHip
 {
  OFFSET 9.568995 0.193718 0.019767
  CHANNELS 3 Yrotation Xrotation Zrotation
  JOINT LeftKnee
  {
   OFFSET 0.000000 -56.649296 0.015402
   CHANNELS 3 Yrotation Xrotation Zrotation
   JOINT LeftAnkle
   {
    OFFSET 0.000000 -41.365147 0.021264
    CHANNELS 3 Yrotation Xrotation Zrotation
    JOINT LeftToe
    {
     OFFSET 0.000000 -7.465940 17.672538
     CHANNELS 3 Yrotation Xrotation Zrotation
     End Site
     {
      OFFSET 0.000000 -1.736315 7.837145
     }
    }
   }
  }
 }
}
MOTION
Frames: 11
Frame Time: 0.016667
78.795833 106.624434 318.731613 -64.514273 -7.138274 -0.155150 -3.051840 6.636065 -0.334800 -1.349234 2.951514 -0.104830 -1.349234 2.951514 -0.104830 -1.011195 2.213879 -0.072085 -4.168897 15.268137 0.573717 -8.009351 -7.680060 2.630311 3.601613 2.699599 6.355516 1.895407 -9.115265 76.378032 7.361027 0.930461 5.310631 -5.462212 -3.045407 4.716223 -2.660048 7.510103 -6.784339 -0.768306 -15.663765 -74.490874 -4.364304 5.075264 -7.881631 3.539686 -5.292295 -5.254683 4.608292 12.819120 2.180530 -0.819212 1.809431 -0.228462 4.996502 -6.354077 -1.418673 0.003427 -1.064973 -0.368683 -4.951570 11.501726 -4.788997 -0.972201 2.200758 0.028296 1.304261 -6.723961 1.992353 -0.000000 -0.000000 0.000000
78.888839 106.605285 318.721587 -64.593551 -7.087177 -0.211975 -3.025683 6.603271 -0.308917 -1.338045 2.936752 -0.093940 -1.338046 2.936751 -0.093940 -1.002863 2.202781 -0.064005 -4.168505 15.286756 0.572720 -8.007181 -7.645637 2.626983 3.534434 2.665664 6.378000 1.914102 -9.012860 76.499248 7.362669 0.950462 5.276617 -5.404782 -3.062506 4.642984 -2.640683 7.444626 -6.813353 -0.758250 -15.521949 -74.654909 -4.359837 5.087394 -7.818191 3.487937 -5.289602 -5.134991 4.647524 12.712740 2.219166 -0.799290 1.819848 -0.194110 5.020718 -6.396013 -1.442084 0.003106 -0.980094 -0.363146 -4.924117 11.434092 -4.796587 -1.012837 2.153156 0.124435 1.401291 -6.694578 1.973927 0.000000 0.000000 0.000000
78.981845 106.586135 318.711560 -64.672872 -7.036157 -0.268865 -2.999557 6.570474 -0.283025 -1.326866 2.921992 -0.083039 -1.326866 2.921992 -0.083039 -0.994537 2.191686 -0.055918 -4.168116 15.305374 0.571712 -8.005017 -7.611215 2.623638 3.467232 2.631772 6.400510 1.932841 -8.910286 76.620343 7.364307 0.970440 5.242590 -5.347230 -3.079491 4.569792 -2.621268 7.379142 -6.842336 -0.748277 -15.380155 -74.818922 -4.355308 5.099470 -7.754739 3.436242 -5.286783 -5.015285 4.686614 12.606352 2.257831 -0.779390 1.830280 -0.159746 5.044980 -6.437945 -1.465477 0.002794 -0.895213 -0.357627 -4.896738 11.366415 -4.804138 -1.053635 2.105784 0.220646 1.498305 -6.665145 1.955606 0.000000 -0.000000 0.000000
79.069566 106.569594 318.700730 -64.749867 -6.995555 -0.319524 -2.975408 6.542787 -0.262908 -1.316471 2.909545 -0.074635 -1.316471 2.909545 -0.074635 -0.986785 2.182332 -0.049692 -4.167121 15.319017 0.570438 -8.001907 -7.586074 2.619927 3.402809 2.598302 6.425858 1.949430 -8.811837 76.734185 7.374152 0.996581 5.214541 -5.296379 -3.091819 4.505587 -2.605039 7.319547 -6.868724 -0.739075 -15.248065 -74.968236 -4.346883 5.110558 -7.692677 3.389089 -5.282882 -4.902987 4.731704 12.513408 2.291482 -0.761894 1.837319 -0.131440 5.057334 -6.472740 -1.483550 0.002492 -0.817797 -0.349211 -4.878750 11.305568 -4.813289 -1.084738 2.068058 0.309852 1.594693 -6.644978 1.940124 0.000000 -0.000000 0.000000
79.149610 106.557148 318.689022 -64.825224 -6.969852 -0.359841 -2.953794 6.522132 -0.252175 -1.307057 2.900286 -0.070312 -1.307057 2.900286 -0.070312 -0.979749 2.175376 -0.046515 -4.164519 15.325761 0.568831 -7.996066 -7.573851 2.615489 3.341536 2.564291 6.456984 1.962306 -8.718186 76.838088 7.397738 1.033301 5.195639 -5.255937 -3.096312 4.455480 -2.593641 7.267583 -6.889996 -0.727316 -15.128252 -75.096710 -4.333667 5.123537 -7.633518 3.348296 -5.277924 -4.800654 4.786525 12.439058 2.315602 -0.743482 1.840915 -0.112652 5.047301 -6.497715 -1.493153 0.002200 -0.751514 -0.335431 -4.878009 11.254305 -4.827113 -1.101682 2.043582 0.390374 1.696212 -6.638302 1.927270 0.000000 -0.000000 0.000000
79.224369 106.547309 318.676511 -64.898221 -6.954532 -0.393881 -2.934135 6.506582 -0.247216 -1.298423 2.893333 -0.068488 -1.298423 2.893333 -0.068488 -0.973286 2.170157 -0.045204 -4.161307 15.327527 0.566969 -7.989273 -7.570911 2.610702 3.283023 2.530740 6.490953 1.973026 -8.628690 76.934739 7.429481 1.076253 5.182768 -5.222293 -3.096196 4.414331 -2.585470 7.221502 -6.908672 -0.716261 -15.018163 -75.210525 -4.316552 5.135494 -7.575753 3.312060 -5.271975 -4.705727 4.847428 12.378120 2.334670 -0.727461 1.841100 -0.099922 5.025316 -6.515555 -1.497464 0.001927 -0.692688 -0.318765 -4.886599 11.209896 -4.842509 -1.108831 2.028653 0.463840 1.797124 -6.640882 1.917223 0.000000 -0.000000 0.000000
79.295733 106.538223 318.662613 -64.964365 -6.946424 -0.427602 -2.916663 6.495492 -0.242981 -1.290743 2.888369 -0.066925 -1.290743 2.888369 -0.066925 -0.967536 2.166429 -0.044079 -4.159868 15.325119 0.564821 -7.985925 -7.575622 2.606330 3.228943 2.500962 6.521750 1.984079 -8.545697 77.025085 7.460903 1.118478 5.172480 -5.191317 -3.096552 4.375681 -2.578891 7.181958 -6.929761 -0.716439 -14.919805 -75.313537 -4.294431 5.136782 -7.516276 3.279433 -5.264172 -4.617956 4.909498 12.328542 2.357110 -0.726147 1.834600 -0.088952 5.010787 -6.527191 -1.500673 0.001690 -0.637776 -0.303716 -4.890175 11.171003 -4.851877 -1.109528 2.021654 0.528114 1.879584 -6.649364 1.913260 0.000000 0.000000 0.000000
79.363639 106.529342 318.647379 -65.018459 -6.946197 -0.463701 -2.903864 6.489138 -0.237288 -1.285151 2.885503 -0.064619 -1.285151 2.885503 -0.064619 -0.963354 2.164275 -0.042382 -4.161402 15.317899 0.561670 -7.988029 -7.589146 2.601527 3.180493 2.478215 6.545052 1.995530 -8.471148 77.110054 7.492384 1.158452 5.165166 -5.162282 -3.099564 4.338514 -2.573149 7.151283 -6.956587 -0.736147 -14.835202 -75.404471 -4.263047 5.120097 -7.452269 3.251585 -5.252771 -4.539158 4.973306 12.294019 2.387727 -0.753183 1.815270 -0.079069 5.014081 -6.530626 -1.502974 0.001495 -0.585786 -0.292454 -4.878416 11.138893 -4.850138 -1.106793 2.024107 0.580958 1.930527 -6.664583 1.918317 0.000000 0.000000 0.000000
79.428150 106.521213 318.630758 -65.065689 -6.953170 -0.499457 -2.893244 6.487248 -0.232327 -1.280511 2.884628 -0.062578 -1.280510 2.884628 -0.062578 -0.959884 2.163613 -0.040875 -4.164712 15.306504 0.558239 -7.993582 -7.610321 2.597151 3.136502 2.459205 6.565162 2.007325 -8.403157 77.188768 7.523560 1.197686 5.160423 -5.135923 -3.103073 4.303834 -2.568996 7.127143 -6.985840 -0.767041 -14.762335 -75.484674 -4.226770 5.092687 -7.386616 3.227337 -5.239554 -4.467521 5.038308 12.270840 2.421722 -0.794931 1.789271 -0.070963 5.024830 -6.527861 -1.504154 0.001327 -0.537714 -0.282801 -4.861652 11.112310 -4.842423 -1.097557 2.034379 0.624588 1.963014 -6.685751 1.929399 0.000000 0.000000 0.000000
79.491338 106.513621 318.612024 -65.117149 -6.962158 -0.532713 -2.877572 6.488344 -0.229603 -1.273594 2.885090 -0.061582 -1.273594 2.885090 -0.061582 -0.954702 2.163957 -0.040160 -4.168592 15.293653 0.556645 -8.000965 -7.634027 2.596521 3.095095 2.437404 6.589015 2.021772 -8.338355 77.259491 7.544857 1.233728 5.153549 -5.110280 -3.105634 4.268210 -2.567054 7.103199 -7.012571 -0.794707 -14.697130 -75.561909 -4.197438 5.066789 -7.324737 3.202185 -5.228908 -4.397360 5.097878 12.245866 2.453113 -0.822786 1.771785 -0.062398 5.031357 -6.525830 -1.507787 0.001173 -0.493000 -0.272741 -4.856522 11.086138 -4.836435 -1.076044 2.046128 0.663554 1.998384 -6.707086 1.940902 0.000000 0.000000 0.000000
79.554684 106.506580 318.590674 -65.174920 -6.970995 -0.562039 -2.855520 6.493156 -0.230607 -1.263789 2.887225 -0.062306 -1.263789 2.887225 -0.062306 -0.947347 2.165558 -0.040745 -4.172546 15.278510 0.558101 -8.009758 -7.661753 2.601774 3.055323 2.408396 6.621204 2.040795 -8.276176 77.318787 7.554207 1.267401 5.145122 -5.083430 -3.107205 4.229179 -2.568536 7.074985 -7.034045 -0.812258 -14.638931 -75.640308 -4.177791 5.046277 -7.265324 3.173372 -5.223793 -4.324279 5.140691 12.214195 2.477383 -0.820188 1.768256 -0.052640 5.029905 -6.526350 -1.515534 0.001030 -0.451840 -0.261106 -4.869750 11.057749 -4.835207 -1.040288 2.056712 0.698754 2.043438 -6.725268 1.950722 0.000000 0.000000 0.000000
